HIERARCHY
ROOT hip
{
	OFFSET 0.000000 0.000000 0.000000 
	CHANNELS 6 Xposition Yposition Zposition Xrotation Zrotation Yrotation
	JOINT abdomen
	{
		OFFSET 0.000000 3.402643 0.000000 
		CHANNELS 3 Xrotation Zrotation Yrotation
		JOINT chest
		{
			OFFSET 0.000000 8.438565 -0.680529 
			CHANNELS 3 Xrotation Zrotation Yrotation
			JOINT neck
			{
				OFFSET 0.000000 10.207942 -0.272212 
				CHANNELS 3 Xrotation Zrotation Yrotation
				JOINT head
				{
					OFFSET 0.000000 3.130431 0.000000 
					CHANNELS 3 Xrotation Zrotation Yrotation
					End Site
					{
						OFFSET 0.000000 3.130435 0.000000 
					}
				}
			}
			JOINT lCollar
			{
				OFFSET 3.470700 6.669187 -0.816635 
				CHANNELS 3 Yrotation Zrotation Xrotation
				JOINT lShldr
				{
					OFFSET 3.198488 0.000000 0.000000 
					CHANNELS 3 Zrotation Yrotation Xrotation
					JOINT lForeArm
					{
						OFFSET 10.139888 0.000000 0.000000 
						CHANNELS 3 Yrotation Zrotation Xrotation
						JOINT lHand
						{
							OFFSET 8.370511 0.000000 0.000000 
							CHANNELS 3 Zrotation Yrotation Xrotation
							End Site
							{
								OFFSET 4.083176 0.000000 0.000000 
							}
						}
					}
				}
			}
			JOINT rCollar
			{
				OFFSET -3.470700 6.669187 -0.816635 
				CHANNELS 3 Yrotation Zrotation Xrotation
				JOINT rShldr
				{
					OFFSET -3.198488 0.000000 0.000000 
					CHANNELS 3 Zrotation Yrotation Xrotation
					JOINT rForeArm
					{
						OFFSET -10.139888 0.000000 0.000000 
						CHANNELS 3 Yrotation Zrotation Xrotation
						JOINT rHand
						{
							OFFSET -8.370511 0.000000 0.000000 
							CHANNELS 3 Zrotation Yrotation Xrotation
							End Site
							{
								OFFSET -4.083176 0.000000 0.000000 
							}
						}
					}
				}
			}
		}
	}
	JOINT lThigh
	{
		OFFSET 5.308129 -1.633274 1.361059 
		CHANNELS 3 Xrotation Zrotation Yrotation
		JOINT lShin
		{
			OFFSET -2.041588 -20.007561 0.000000 
			CHANNELS 3 Xrotation Zrotation Yrotation
			JOINT lFoot
			{
				OFFSET 0.000000 -19.190928 -1.224953 
				CHANNELS 3 Xrotation Yrotation Zrotation
				End Site
				{
					OFFSET 0.000000 -2.449906 4.627600 
				}
			}
		}
	}
	JOINT rThigh
	{
		OFFSET -5.308129 -1.633274 1.361059 
		CHANNELS 3 Xrotation Zrotation Yrotation
		JOINT rShin
		{
			OFFSET 2.041588 -20.007561 0.000000 
			CHANNELS 3 Xrotation Zrotation Yrotation
			JOINT rFoot
			{
				OFFSET 0.000000 -19.190928 -1.224953 
				CHANNELS 3 Xrotation Yrotation Zrotation
				End Site
				{
					OFFSET 0.000000 -2.449906 4.627600 
				}
			}
		}
	}
}
MOTION
Frames: 13
Frame Time: 0.016667
-0.408325 45.173920 -0.248023 4.282150 -4.723170 -4.894680 -22.773701 3.095740 -2.695490 17.311199 2.554500 -0.808720 39.429157 0.879678 -19.893036 -8.603520 0.000000 0.000000 2.000000 -2.000000 0.000000 -89.953300 4.895120 160.203995 28.535500 -0.334957 0.065369 5.540530 -0.594568 -143.557999 -2.000000 2.000000 0.000000 88.570198 4.907670 165.334000 -18.916201 0.344180 0.044329 5.568240 3.706780 -148.181000 -7.124817 3.078243 -0.750880 18.827984 3.440551 1.316977 -10.431050 3.417252 0.919656 -7.875748 6.517808 3.813480 20.013313 -2.587437 -1.679139 -13.019146 -8.070190 -2.519531 
-0.393989 45.176132 -0.237916 4.301930 -4.752260 -4.781290 -22.791300 3.059710 -2.818820 17.301300 2.603220 -0.870516 39.834042 2.147769 -19.938578 -8.603520 0.000000 0.000000 2.000000 -2.000000 0.000000 -89.944199 4.789520 161.014999 29.404600 -0.333952 0.067184 5.541140 -0.572996 -143.841003 -2.000000 2.000000 0.000000 88.218597 5.152220 165.158997 -19.072500 0.344059 0.044682 5.552970 3.733220 -148.425003 -7.153466 3.096794 -0.798590 18.828587 3.437106 1.317025 -10.466918 3.335279 0.902130 -7.818005 6.537028 3.782013 19.895254 -2.580693 -1.660525 -12.999576 -8.124412 -2.524141 
-0.380141 45.178726 -0.226957 4.321520 -4.752140 -4.675490 -22.760300 3.020650 -2.895530 17.350201 2.613100 -0.917672 40.244503 2.391845 -19.700876 -8.603520 0.000000 0.000000 2.000000 -2.000000 0.000000 -89.857101 4.703930 162.031006 30.391001 -0.332779 0.069224 5.550270 -0.528467 -144.281006 -2.000000 2.000000 0.000000 87.993401 5.779980 163.959000 -18.760000 0.344301 0.043977 5.602260 3.663010 -147.712997 -7.169634 3.090503 -0.827398 18.806843 3.447863 1.318347 -10.492851 3.250215 0.883283 -7.829577 6.537804 3.741744 19.855284 -2.579174 -1.641442 -13.008972 -8.162257 -2.544588 
-0.356920 45.182487 -0.234163 4.409410 -4.702900 -5.030580 -22.781500 3.048810 -2.792380 17.320801 2.622770 -0.860964 40.734699 2.343695 -19.346024 -8.603520 0.000000 0.000000 2.000000 -2.000000 0.000000 -89.740601 4.676990 163.065994 31.348000 -0.331608 0.071184 5.549600 -0.483847 -144.798996 -2.000000 2.000000 0.000000 87.738899 6.280410 162.914993 -18.574400 0.344442 0.043557 5.634710 3.608260 -147.177002 -7.194777 3.017158 -0.659445 18.748281 3.439941 1.307887 -10.414409 3.439123 0.918763 -7.964935 6.479112 3.899662 19.875051 -2.581656 -1.651278 -12.966249 -7.968299 -2.483452 
-0.327295 45.184570 -0.254359 4.546270 -4.653350 -5.692230 -22.863501 3.123410 -2.565330 17.193701 2.641930 -0.740963 41.246754 2.341524 -18.865414 -8.603520 0.000000 0.000000 2.000000 -2.000000 0.000000 -89.624100 4.679110 163.994003 32.197601 -0.330540 0.072907 5.557540 -0.438375 -145.278000 -2.000000 2.000000 0.000000 87.406700 6.476260 162.681000 -18.760000 0.344301 0.043977 5.617660 3.636220 -147.459000 -7.262332 2.957875 -0.343032 18.745569 3.405843 1.332361 -10.341550 3.736776 1.017556 -8.158936 6.383769 4.167191 19.858141 -2.562460 -1.658135 -12.862583 -7.609452 -2.355985 
-0.301218 45.184570 -0.268214 4.634380 -4.643040 -6.128260 -22.924400 3.173280 -2.431780 17.086100 2.651390 -0.678145 41.824730 2.316295 -18.242506 -8.603520 0.000000 0.000000 2.000000 -2.000000 0.000000 -89.497597 4.661470 164.813995 32.978901 -0.329536 0.074478 5.558690 -0.400042 -145.677994 -2.000000 2.000000 0.000000 87.094101 6.681850 162.457001 -18.945499 0.344158 0.044395 5.601890 3.674820 -147.800003 -7.258636 2.962785 -0.108440 18.700415 3.380325 1.328777 -10.312465 3.927112 1.076603 -8.361763 6.377149 4.325644 19.954483 -2.582447 -1.669558 -12.823650 -7.365570 -2.270827 
-0.282265 45.186512 -0.271668 4.673640 -4.652520 -6.200570 -22.933800 3.160610 -2.437730 17.047001 2.651280 -0.679952 42.377449 2.195380 -17.579809 -8.603520 0.000000 0.000000 2.000000 -2.000000 0.000000 -89.341797 4.545950 165.537003 33.672199 -0.328627 0.075860 5.559290 -0.361307 -146.078995 -2.000000 2.000000 0.000000 86.820602 6.965630 162.203995 -19.072500 0.344059 0.044682 5.582430 3.704020 -148.113007 -7.310275 2.955637 -0.066749 18.730654 3.379915 1.338725 -10.350719 3.935896 1.082443 -8.354162 6.356278 4.346641 19.888796 -2.559689 -1.676671 -12.794340 -7.317494 -2.254758 
-0.264611 45.190277 -0.279745 4.722820 -4.681390 -6.285060 -22.913900 3.143120 -2.428940 17.037300 2.631750 -0.679207 43.075016 2.051234 -16.874617 -8.603520 0.000000 0.000000 2.000000 -2.000000 0.000000 -89.185898 4.371640 166.171997 34.258202 -0.327846 0.077019 5.559500 -0.322284 -146.509003 -2.000000 2.000000 0.000000 86.566597 7.288450 161.960999 -19.199400 0.343960 0.044968 5.552330 3.733610 -148.434998 -7.377920 2.970116 -0.063692 18.789810 3.384326 1.348570 -10.354534 3.988832 1.076347 -8.405216 6.372474 4.369248 19.866907 -2.567945 -1.649186 -12.772852 -7.252745 -2.240643 
-0.245257 45.193523 -0.280618 4.732230 -4.622930 -6.359160 -22.913000 3.107140 -2.413750 17.017700 2.631700 -0.680104 43.889328 1.812510 -16.102816 -8.603520 0.000000 0.000000 2.000000 -2.000000 0.000000 -89.029900 4.236120 166.690002 34.736698 -0.327199 0.077960 5.563230 -0.290821 -146.869995 -2.000000 2.000000 0.000000 86.283798 7.345800 162.507996 -19.658400 0.343596 0.046001 5.477560 3.846530 -149.585999 -7.310750 2.897189 -0.047038 18.644573 3.363817 1.346802 -10.265047 4.049380 1.113129 -8.410163 6.288435 4.349772 19.848150 -2.560415 -1.648251 -12.766455 -7.162613 -2.216384 
-0.227312 45.196644 -0.282628 4.751560 -4.583870 -6.445400 -22.902201 3.062410 -2.394190 17.017799 2.621950 -0.679502 44.761620 1.492608 -15.340549 -8.603520 0.000000 0.000000 2.000000 -2.000000 0.000000 -88.864098 4.051570 167.119995 35.107800 -0.326693 0.078686 5.566160 -0.258824 -147.143997 -2.000000 2.000000 0.000000 86.010902 7.343970 163.307999 -20.263901 0.343102 0.047359 5.382050 3.986010 -150.981003 -7.313042 2.833015 -0.027148 18.616129 3.353912 1.335771 -10.221157 4.135155 1.131017 -8.432291 6.214308 4.348219 19.799463 -2.559437 -1.658676 -12.742462 -7.086240 -2.185580 
-0.213841 45.200405 -0.296183 4.840260 -4.661130 -6.537120 -22.902201 3.056840 -2.381250 17.008101 2.573190 -0.667167 45.469376 1.281274 -14.646952 -8.603520 0.000000 0.000000 2.000000 -2.000000 0.000000 -88.708000 3.866820 167.462006 35.390999 -0.326303 0.079238 5.567750 -0.242906 -147.339005 -2.000000 2.000000 0.000000 85.777100 7.322740 164.050995 -20.879101 0.342587 0.048733 5.295670 4.100780 -152.182007 -7.437787 2.920034 -0.041164 18.706589 3.349370 1.343879 -10.216249 4.198735 1.151248 -8.446750 6.277077 4.414083 19.605928 -2.529613 -1.647375 -12.618539 -7.061004 -2.186226 
-0.202561 45.203003 -0.315520 4.948800 -4.767400 -6.642980 -22.922001 3.063200 -2.364120 16.978901 2.543870 -0.666658 46.043858 1.045161 -13.992369 -8.603520 0.000000 0.000000 2.000000 -2.000000 0.000000 -88.561600 3.720810 167.667999 35.615601 -0.325991 0.079674 5.563710 -0.234970 -147.455994 -2.000000 2.000000 0.000000 85.582100 7.350980 164.509995 -21.377199 0.342158 0.049842 5.244530 4.172440 -152.932999 -7.605758 3.039203 -0.092463 18.828503 3.337035 1.360747 -10.241721 4.299290 1.157498 -8.537477 6.402154 4.497055 19.507853 -2.526911 -1.648610 -12.500632 -7.051571 -2.172909 
-0.188918 45.205082 -0.325038 5.017260 -4.747450 -6.744620 -22.941200 3.044730 -2.357680 16.910400 2.572910 -0.671551 46.489025 0.829804 -13.362480 -8.603520 0.000000 0.000000 2.000000 -2.000000 0.000000 -88.454201 3.633150 167.764999 35.781601 -0.325760 0.079996 5.569080 -0.226816 -147.494995 -2.000000 2.000000 0.000000 85.396797 7.330490 164.929993 -21.826401 0.341764 0.050839 5.199100 4.240340 -153.587006 -7.653704 3.019139 -0.070665 18.811123 3.320269 1.348553 -10.192586 4.380959 1.205844 -8.630435 6.382021 4.515093 19.517906 -2.521983 -1.637929 -12.469754 -7.009460 -2.148120 
